<svg xmlns="http://www.w3.org/2000/svg" enable-background="new 0 0 32 32" viewBox="0 0 32 32" id="udemy"><path fill="#F5E6FE" d="M26,32H6c-3.314,0-6-2.686-6-6V6c0-3.314,2.686-6,6-6h20c3.314,0,6,2.686,6,6v20C32,29.314,29.314,32,26,32z"></path><path fill="#D9A4FC" d="M20.849,13.849c0,0.005,0,0.01,0,0.015c0,0.001,0,0.001,0,0.002V13.849z"></path><path fill="#BE63F9" d="M23.72,16.91c-0.052-0.043-0.115-0.076-0.184-0.092l-0.003-0.001c-0.4,0.403-0.9,0.825-1.333,1.109c-0.207,0.132-0.467,0.198-0.633,0.198c-0.393,0-0.56-0.363-0.607-0.95c-0.073-0.858-0.115-1.856-0.115-2.865c0-0.109,0.001-0.217,0.001-0.325c0-1.49-0.347-2.506-1.253-2.585l-0.12-0.007c-0.553,0-0.827,0.284-1.18,1.003c-0.307,0.62-0.78,1.518-1.653,3.234c-0.708,1.383-1.471,2.573-2.333,3.682c-0.207,0.251-0.366,0.422-0.52,0.528c-0.082,0.056-0.183,0.09-0.293,0.092h-0.001c-0.287,0-0.5-0.238-0.567-0.798c-0.017-0.131-0.027-0.283-0.027-0.436c0-0.006,0-0.013,0-0.019c0-1.155,0.44-3.035,1.2-5.794c0.553-2.013,0.32-3.385-0.893-3.385h-0.02c-0.273,0-0.5,0.106-0.72,0.277c-0.22,0.165-0.433,0.535-0.64,1.029c-0.227,0.554-1.613,3.319-3.826,4.751c-0.027,0.535,0.28,1.076,0.913,1.142c0.567,0.053,0.973-0.185,1.493-0.534l-0.107,0.482c-0.111,0.43-0.227,1.01-0.319,1.599l-0.015,0.116c-0.307,2.772,0.98,4.138,2.493,4.138c0.253,0,0.507-0.033,0.753-0.099c1.667-0.416,3.267-2.316,5.166-6.685c-0.014,0.218-0.021,0.472-0.021,0.728c0,0.207,0.005,0.412,0.016,0.617c0.129,2.498,1.121,3.242,2.532,3.242c1.067,0,2.06-0.548,2.567-1.234c0.316-0.395,0.512-0.896,0.527-1.442v-0.003C23.987,17.3,23.887,17.043,23.72,16.91L23.72,16.91z"></path><path fill="#D9A4FC" d="M18.376,16.99c0-0.006,0-0.012,0-0.018c0-0.004-0.001-0.008-0.001-0.012L18.376,16.99z"></path></svg>